<svg xmlns="http://www.w3.org/2000/svg" viewBox="0 0 1274.80 1020.00" font-family="SauceCodePro Nerd Font, Source Code Pro, Courier, monospace" font-size="14"><rect x="0" y="0" width="1274.8" height="1020" fill="#000000"/><text x="28.40" y="54.00" fill="#008B8B" font-weight="bold">▄▄</text><text x="53.60" y="54.00" fill="#008B8B" font-weight="bold">▄▄</text><text x="87.20" y="54.00" fill="#008B8B" font-weight="bold">▄▄</text><text x="112.40" y="54.00" fill="#008B8B" font-weight="bold">▄▄</text><text x="137.60" y="54.00" fill="#008B8B" font-weight="bold">▄▄</text><text x="204.80" y="54.00" fill="#008B8B" font-weight="bold">▄▄▄</text><text x="238.40" y="54.00" fill="#008B8B" font-weight="bold">▄▄</text><text x="263.60" y="54.00" fill="#008B8B" font-weight="bold">▄▄</text><text x="297.20" y="54.00" fill="#008B8B" font-weight="bold">▄▄▄</text><text x="339.20" y="54.00" fill="#008B8B" font-weight="bold">▄▄▄▄</text><text x="381.20" y="54.00" fill="#008B8B" font-weight="bold">▄▄▄▄</text><text x="28.40" y="74.00" fill="#008B8B" font-weight="bold">██</text><text x="53.60" y="74.00" fill="#008B8B" font-weight="bold">███▄██</text><text x="112.40" y="74.00" fill="#008B8B" font-weight="bold">██▄█▀</text><text x="162.80" y="74.00" fill="#008B8B" font-weight="bold">▄▄▄</text><text x="196.40" y="74.00" fill="#008B8B" font-weight="bold">██▀▀</text><text x="238.40" y="74.00" fill="#008B8B" font-weight="bold">██▄██</text><text x="288.80" y="74.00" fill="#008B8B" font-weight="bold">██▀██</text><text x="339.20" y="74.00" fill="#008B8B" font-weight="bold">██▄█▄</text><text x="389.60" y="74.00" fill="#008B8B" font-weight="bold">██</text><text x="28.40" y="94.00" fill="#008B8B" font-weight="bold">██</text><text x="53.60" y="94.00" fill="#008B8B" font-weight="bold">██</text><text x="78.80" y="94.00" fill="#008B8B" font-weight="bold">▀██</text><text x="112.40" y="94.00" fill="#008B8B" font-weight="bold">██</text><text x="137.60" y="94.00" fill="#008B8B" font-weight="bold">██</text><text x="196.40" y="94.00" fill="#008B8B" font-weight="bold">▀███</text><text x="238.40" y="94.00" fill="#008B8B" font-weight="bold">██</text><text x="263.60" y="94.00" fill="#008B8B" font-weight="bold">██</text><text x="288.80" y="94.00" fill="#008B8B" font-weight="bold">██▀██</text><text x="339.20" y="94.00" fill="#008B8B" font-weight="bold">██</text><text x="364.40" y="94.00" fill="#008B8B" font-weight="bold">██</text><text x="389.60" y="94.00" fill="#008B8B" font-weight="bold">██</text><text x="28.40" y="154.00" fill="#008B8B" font-weight="bold">◼</text><text x="45.20" y="154.00" fill="#008B8B" font-weight="bold">BarChart</text><text x="45.20" y="174.00" fill="#DAA520" font-weight="bold">Sort</text><text x="87.20" y="174.00" fill="#DAA520" font-weight="bold">&amp;</text><text x="104.00" y="174.00" fill="#DAA520" font-weight="bold">Format</text><text x="440.00" y="174.00" fill="#DAA520" font-weight="bold">Multi-Color</text><text x="834.80" y="174.00" fill="#DAA520" font-weight="bold">Character</text><text x="918.80" y="174.00" fill="#DAA520" font-weight="bold">Styles</text><text x="45.20" y="194.00" fill="#D3D3D3" opacity="0.5">Sorted</text><text x="104.00" y="194.00" fill="#D3D3D3" opacity="0.5">descending</text><text x="196.40" y="194.00" fill="#D3D3D3" opacity="0.5">with</text><text x="238.40" y="194.00" fill="#D3D3D3" opacity="0.5">values</text><text x="440.00" y="194.00" fill="#D3D3D3" opacity="0.5">Per-bar</text><text x="507.20" y="194.00" fill="#D3D3D3" opacity="0.5">color</text><text x="557.60" y="194.00" fill="#D3D3D3" opacity="0.5">customization</text><text x="834.80" y="194.00" fill="#D3D3D3" opacity="0.5">Custom</text><text x="893.60" y="194.00" fill="#D3D3D3" opacity="0.5">bar</text><text x="927.20" y="194.00" fill="#D3D3D3" opacity="0.5">characters</text><text x="45.20" y="214.00" fill="#D3D3D3">Sales</text><text x="146.00" y="214.00" fill="#D3D3D3">▆▆▆▆▆▆▆▆▆▆▆▆▆▆▆▆▆▆▆▆▆▆▆</text><text x="347.60" y="214.00" fill="#D3D3D3">1250</text><text x="440.00" y="214.00" fill="#4aaa1a">Success</text><text x="515.60" y="214.00" fill="#4aaa1a">▆▆▆▆▆▆▆▆▆▆▆▆▆▆▆▆▆▆▆▆▆▆▆▆▆▆▆▆</text><text x="759.20" y="214.00" fill="#4aaa1a">22</text><text x="834.80" y="214.00" fill="#D3D3D3">API</text><text x="885.20" y="214.00" fill="#D3D3D3">▆▆▆▆▆▆▆▆▆▆▆▆▆▆▆▆▆▆▆▆▆▆</text><text x="1112.00" y="214.00" fill="#D3D3D3">85</text><text x="45.20" y="234.00" fill="#D3D3D3">Development</text><text x="146.00" y="234.00" fill="#D3D3D3">▆▆▆▆▆▆▆▆▆▆▆▆▆▆▆▆▆</text><text x="356.00" y="234.00" fill="#D3D3D3">950</text><text x="440.00" y="234.00" fill="#d89612">Warnings</text><text x="515.60" y="234.00" fill="#d89612">▆▆▆▆▆▆▆▆▆▆</text><text x="767.60" y="234.00" fill="#d89612">8</text><text x="834.80" y="234.00" fill="#D3D3D3">DB</text><text x="885.20" y="234.00" fill="#D3D3D3">▓▓▓▓▓▓▓▓▓▓▓▓▓▓▓▓</text><text x="1112.00" y="234.00" fill="#D3D3D3">65</text><text x="45.20" y="254.00" fill="#D3D3D3">Marketing</text><text x="146.00" y="254.00" fill="#D3D3D3">▆▆▆▆▆▆▆▆▆▆▆▆▆▆</text><text x="356.00" y="254.00" fill="#D3D3D3">800</text><text x="440.00" y="254.00" fill="#a61d24">Errors</text><text x="515.60" y="254.00" fill="#a61d24">▆▆▆▆▆▆▆▆▆▆▆▆▆▆▆▆▆▆▆</text><text x="759.20" y="254.00" fill="#a61d24">15</text><text x="834.80" y="254.00" fill="#D3D3D3">Cache</text><text x="885.20" y="254.00" fill="#D3D3D3">▒▒▒▒▒▒▒▒▒▒▒▒▒▒▒▒▒▒▒▒▒▒▒</text><text x="1112.00" y="254.00" fill="#D3D3D3">92</text><text x="45.20" y="274.00" fill="#D3D3D3">Operations</text><text x="146.00" y="274.00" fill="#D3D3D3">▆▆▆▆▆▆▆▆▆▆▆</text><text x="356.00" y="274.00" fill="#D3D3D3">650</text><text x="45.20" y="294.00" fill="#D3D3D3">Support</text><text x="146.00" y="294.00" fill="#D3D3D3">▆▆▆▆▆</text><text x="356.00" y="294.00" fill="#D3D3D3">300</text><text x="28.40" y="334.00" fill="#D3D3D3" opacity="0.5">──────────────────────────────────────────────────────────────────────────────────────────────────────────────────────────────────────────────────</text><text x="28.40" y="374.00" fill="#008B8B" font-weight="bold">◼</text><text x="45.20" y="374.00" fill="#008B8B" font-weight="bold">StackedBarChart</text><text x="45.20" y="394.00" fill="#DAA520" font-weight="bold">Percentage</text><text x="137.60" y="394.00" fill="#DAA520" font-weight="bold">Mode</text><text x="440.00" y="394.00" fill="#DAA520" font-weight="bold">Custom</text><text x="498.80" y="394.00" fill="#DAA520" font-weight="bold">Format</text><text x="834.80" y="394.00" fill="#DAA520" font-weight="bold">Absolute</text><text x="910.40" y="394.00" fill="#DAA520" font-weight="bold">Mode</text><text x="45.20" y="414.00" fill="#D3D3D3" opacity="0.5">100%</text><text x="87.20" y="414.00" fill="#D3D3D3" opacity="0.5">stacked</text><text x="154.40" y="414.00" fill="#D3D3D3" opacity="0.5">bar</text><text x="440.00" y="414.00" fill="#D3D3D3" opacity="0.5">Custom</text><text x="498.80" y="414.00" fill="#D3D3D3" opacity="0.5">value</text><text x="549.20" y="414.00" fill="#D3D3D3" opacity="0.5">formatter</text><text x="834.80" y="414.00" fill="#D3D3D3" opacity="0.5">Absolute</text><text x="910.40" y="414.00" fill="#D3D3D3" opacity="0.5">values</text><text x="969.20" y="414.00" fill="#D3D3D3" opacity="0.5">(max</text><text x="1011.20" y="414.00" fill="#D3D3D3" opacity="0.5">100)</text><text x="45.20" y="434.00" fill="#D3D3D3">Sales</text><text x="146.00" y="434.00" fill="#D3D3D3">Warning</text><text x="213.20" y="434.00" fill="#D3D3D3">Error</text><text x="440.00" y="434.00" fill="#D3D3D3">Development</text><text x="591.20" y="434.00" fill="#D3D3D3">Testing</text><text x="675.20" y="434.00" fill="#D3D3D3">PlanniMeetin</text><text x="834.80" y="434.00" fill="#D3D3D3">CPU</text><text x="986.00" y="434.00" fill="#D3D3D3">Memory</text><text x="1086.80" y="434.00" fill="#D3D3D3">Disk</text><text x="45.20" y="454.00" fill="#4aaa1a">████████████</text><text x="146.00" y="454.00" fill="#d89612">████████</text><text x="213.20" y="454.00" fill="#a61d24">████████████████████</text><text x="440.00" y="454.00" fill="#1890ff">██████████████████</text><text x="591.20" y="454.00" fill="#52c41a">██████████</text><text x="675.20" y="454.00" fill="#faad14">██████</text><text x="725.60" y="454.00" fill="#f5222d">██████</text><text x="834.80" y="454.00" fill="#1890ff">██████████████████</text><text x="986.00" y="454.00" fill="#52c41a">████████████</text><text x="1086.80" y="454.00" fill="#faad14">██████</text><text x="45.20" y="474.00" fill="#D3D3D3">30.0%</text><text x="146.00" y="474.00" fill="#D3D3D3">20.0%</text><text x="213.20" y="474.00" fill="#D3D3D3">50.0%</text><text x="440.00" y="474.00" fill="#D3D3D3">45%</text><text x="591.20" y="474.00" fill="#D3D3D3">25%</text><text x="675.20" y="474.00" fill="#D3D3D3">15%</text><text x="725.60" y="474.00" fill="#D3D3D3">15%</text><text x="834.80" y="474.00" fill="#D3D3D3">45</text><text x="986.00" y="474.00" fill="#D3D3D3">30</text><text x="1086.80" y="474.00" fill="#D3D3D3">15</text><text x="28.40" y="514.00" fill="#D3D3D3" opacity="0.5">──────────────────────────────────────────────────────────────────────────────────────────────────────────────────────────────────────────────────</text><text x="28.40" y="554.00" fill="#008B8B" font-weight="bold">◼</text><text x="45.20" y="554.00" fill="#008B8B" font-weight="bold">LineGraph</text><text x="45.20" y="574.00" fill="#DAA520" font-weight="bold">X-Labels</text><text x="120.80" y="574.00" fill="#DAA520" font-weight="bold">&amp;</text><text x="137.60" y="574.00" fill="#DAA520" font-weight="bold">Caption</text><text x="440.00" y="574.00" fill="#DAA520" font-weight="bold">Multi-Series</text><text x="45.20" y="594.00" fill="#D3D3D3" opacity="0.5">High-res</text><text x="120.80" y="594.00" fill="#D3D3D3" opacity="0.5">5</text><text x="137.60" y="594.00" fill="#D3D3D3" opacity="0.5">levels/row</text><text x="440.00" y="594.00" fill="#D3D3D3" opacity="0.5">Multiple</text><text x="515.60" y="594.00" fill="#D3D3D3" opacity="0.5">data</text><text x="557.60" y="594.00" fill="#D3D3D3" opacity="0.5">series</text><text x="616.40" y="594.00" fill="#D3D3D3" opacity="0.5">overlay</text><text x="196.40" y="614.00" fill="#008B8B">⎽⎼─⎺⎻⎻─⎼⎽</text><text x="465.20" y="614.00" fill="#D3D3D3" opacity="0.5">│</text><text x="717.20" y="614.00" fill="#008B8B">⎽⎽⎼─⎻⎻⎺</text><text x="171.20" y="634.00" fill="#008B8B">⎽─⎻</text><text x="272.00" y="634.00" fill="#008B8B">⎻─⎼</text><text x="440.00" y="634.00" fill="#D3D3D3" opacity="0.5">140│</text><text x="666.80" y="634.00" fill="#008B8B">⎽⎼──⎻⎺</text><text x="137.60" y="654.00" fill="#008B8B">⎽⎼─⎺</text><text x="297.20" y="654.00" fill="#008B8B">⎺─⎼</text><text x="465.20" y="654.00" fill="#D3D3D3" opacity="0.5">│</text><text x="633.20" y="654.00" fill="#008B8B">⎼⎻⎺⎺</text><text x="104.00" y="674.00" fill="#008B8B">⎽⎼─⎺</text><text x="322.40" y="674.00" fill="#008B8B">⎺⎻⎼</text><text x="465.20" y="674.00" fill="#D3D3D3" opacity="0.5">│</text><text x="473.60" y="674.00" fill="#008B8B">─⎼⎽</text><text x="566.00" y="674.00" fill="#B22222">⎼────⎼</text><text x="616.40" y="674.00" fill="#008B8B">─⎺</text><text x="78.80" y="694.00" fill="#008B8B">⎽─⎻</text><text x="347.60" y="694.00" fill="#008B8B">⎺⎻⎼</text><text x="465.20" y="694.00" fill="#D3D3D3" opacity="0.5">│</text><text x="498.80" y="694.00" fill="#008B8B">⎺⎺⎻─</text><text x="532.40" y="694.00" fill="#B22222">⎽⎼⎻⎺</text><text x="566.00" y="694.00" fill="#008B8B">⎼⎼─⎻⎻</text><text x="616.40" y="694.00" fill="#B22222">⎺⎻⎼⎼─⎻⎻⎻──⎼⎽</text><text x="45.20" y="714.00" fill="#008B8B">⎽⎼─⎺</text><text x="372.80" y="714.00" fill="#008B8B">⎺</text><text x="440.00" y="714.00" fill="#D3D3D3" opacity="0.5">100│</text><text x="473.60" y="714.00" fill="#B22222">⎽⎼⎼─⎻⎺⎺</text><text x="717.20" y="714.00" fill="#B22222">⎺⎺⎻─⎼⎼⎽</text><text x="45.20" y="734.00" fill="#D3D3D3" opacity="0.5">────────────────────────────────────────</text><text x="465.20" y="734.00" fill="#D3D3D3" opacity="0.5">└────────────────────────────────────</text><text x="45.20" y="754.00" fill="#D3D3D3" opacity="0.5">Jan</text><text x="356.00" y="754.00" fill="#D3D3D3" opacity="0.5">Dec</text><text x="473.60" y="754.00" fill="#D3D3D3" opacity="0.5">Q1</text><text x="566.00" y="754.00" fill="#D3D3D3" opacity="0.5">Q2</text><text x="658.40" y="754.00" fill="#D3D3D3" opacity="0.5">Q3</text><text x="759.20" y="754.00" fill="#D3D3D3" opacity="0.5">Q4</text><text x="45.20" y="774.00" fill="#D3D3D3">Monthly</text><text x="112.40" y="774.00" fill="#D3D3D3">temperature</text><text x="213.20" y="774.00" fill="#D3D3D3">(C)</text><text x="440.00" y="774.00" fill="#D3D3D3">Red:</text><text x="482.00" y="774.00" fill="#D3D3D3">2023,</text><text x="532.40" y="774.00" fill="#D3D3D3">Cyan:</text><text x="582.80" y="774.00" fill="#D3D3D3">2024</text><text x="28.40" y="814.00" fill="#D3D3D3" opacity="0.5">──────────────────────────────────────────────────────────────────────────────────────────────────────────────────────────────────────────────────</text><text x="28.40" y="854.00" fill="#008B8B" font-weight="bold">◼</text><text x="45.20" y="854.00" fill="#008B8B" font-weight="bold">Sparkline</text><text x="45.20" y="874.00" fill="#DAA520" font-weight="bold">Block</text><text x="95.60" y="874.00" fill="#DAA520" font-weight="bold">Mode</text><text x="440.00" y="874.00" fill="#DAA520" font-weight="bold">Gradient</text><text x="515.60" y="874.00" fill="#DAA520" font-weight="bold">Color</text><text x="566.00" y="874.00" fill="#DAA520" font-weight="bold">Schemes</text><text x="45.20" y="894.00" fill="#D3D3D3" opacity="0.5">Block</text><text x="95.60" y="894.00" fill="#D3D3D3" opacity="0.5">character</text><text x="179.60" y="894.00" fill="#D3D3D3" opacity="0.5">rendering</text><text x="440.00" y="894.00" fill="#D3D3D3" opacity="0.5">8-level</text><text x="507.20" y="894.00" fill="#D3D3D3" opacity="0.5">threshold</text><text x="591.20" y="894.00" fill="#D3D3D3" opacity="0.5">gradients</text><text x="45.20" y="914.00" fill="#D3D3D3">▂▂▃▃▂▄▄▅▅▃▄▄▇▇█▆▆▅▅▅▃▃▂▂▂▂▂▁▁▁▁▁▁▁▁▂▂▃▃▃</text><text x="440.00" y="914.00" fill="#D3D3D3">Red:</text><text x="498.80" y="914.00" fill="#D3D3D3">▁▁▁▂▂</text><text x="540.80" y="914.00" fill="#ffc8c8">▃▃</text><text x="557.60" y="914.00" fill="#ffb4b4">▃▃</text><text x="574.40" y="914.00" fill="#ffa0a0">▄▄▄</text><text x="599.60" y="914.00" fill="#ff8c8c">▅▅</text><text x="616.40" y="914.00" fill="#ff7878">▅▅</text><text x="633.20" y="914.00" fill="#ff6464">▆▆</text><text x="650.00" y="914.00" fill="#ff5050">▇▇</text><text x="666.80" y="914.00" fill="#dc3232">███</text><text x="692.00" y="914.00" fill="#ff6464">▇▇</text><text x="708.80" y="914.00" fill="#ff7878">▆▆</text><text x="725.60" y="914.00" fill="#ff8c8c">▅▅</text><text x="742.40" y="914.00" fill="#ffa0a0">▄▄▄</text><text x="767.60" y="914.00" fill="#ffb4b4">▄▄</text><text x="784.40" y="914.00" fill="#ffc8c8">▃▃▂▂</text><text x="818.00" y="914.00" fill="#D3D3D3">▁▁</text><text x="45.20" y="934.00" fill="#D3D3D3">Requests</text><text x="120.80" y="934.00" fill="#D3D3D3">per</text><text x="154.40" y="934.00" fill="#D3D3D3">second</text><text x="440.00" y="934.00" fill="#D3D3D3">Blue:</text><text x="498.80" y="934.00" fill="#D3D3D3">▁▁▁▂▂</text><text x="540.80" y="934.00" fill="#c8c8ff">▃▃</text><text x="557.60" y="934.00" fill="#b4b4ff">▃▃</text><text x="574.40" y="934.00" fill="#a0a0ff">▄▄▄</text><text x="599.60" y="934.00" fill="#8c8cff">▅▅</text><text x="616.40" y="934.00" fill="#7878ff">▅▅</text><text x="633.20" y="934.00" fill="#6464ff">▆▆</text><text x="650.00" y="934.00" fill="#5050ff">▇▇</text><text x="666.80" y="934.00" fill="#3232dc">███</text><text x="692.00" y="934.00" fill="#6464ff">▇▇</text><text x="708.80" y="934.00" fill="#7878ff">▆▆</text><text x="725.60" y="934.00" fill="#8c8cff">▅▅</text><text x="742.40" y="934.00" fill="#a0a0ff">▄▄▄</text><text x="767.60" y="934.00" fill="#b4b4ff">▄▄</text><text x="784.40" y="934.00" fill="#c8c8ff">▃▃▂▂</text><text x="818.00" y="934.00" fill="#D3D3D3">▁▁</text><text x="45.20" y="954.00" fill="#D3D3D3" opacity="0.5">Peak:</text><text x="95.60" y="954.00" fill="#D3D3D3" opacity="0.5">94</text><text x="120.80" y="954.00" fill="#D3D3D3" opacity="0.5">|</text><text x="137.60" y="954.00" fill="#D3D3D3" opacity="0.5">Avg:</text><text x="179.60" y="954.00" fill="#D3D3D3" opacity="0.5">57</text><text x="440.00" y="954.00" fill="#D3D3D3">Green:</text><text x="498.80" y="954.00" fill="#D3D3D3">▁▁▁▂▂</text><text x="540.80" y="954.00" fill="#c8ffc8">▃▃</text><text x="557.60" y="954.00" fill="#b4ffb4">▃▃</text><text x="574.40" y="954.00" fill="#a0ffa0">▄▄▄</text><text x="599.60" y="954.00" fill="#8cff8c">▅▅</text><text x="616.40" y="954.00" fill="#78ff78">▅▅</text><text x="633.20" y="954.00" fill="#64ff64">▆▆</text><text x="650.00" y="954.00" fill="#50dc50">▇▇</text><text x="666.80" y="954.00" fill="#32b432">███</text><text x="692.00" y="954.00" fill="#64ff64">▇▇</text><text x="708.80" y="954.00" fill="#78ff78">▆▆</text><text x="725.60" y="954.00" fill="#8cff8c">▅▅</text><text x="742.40" y="954.00" fill="#a0ffa0">▄▄▄</text><text x="767.60" y="954.00" fill="#b4ffb4">▄▄</text><text x="784.40" y="954.00" fill="#c8ffc8">▃▃▂▂</text><text x="818.00" y="954.00" fill="#D3D3D3">▁▁</text></svg>